<svg class="icon" viewBox="0 0 1024 1024" version="1.1" xmlns="http://www.w3.org/2000/svg" width="1em" height="1em"><path d="M104.96 481.12a29.12 29.12 0 0 1-25.6-12.8 30.88 30.88 0 0 1 3.2-44.8l377.6-310.4a100.8 100.8 0 0 1 118.4 0l377.6 307.2a32 32 0 0 1-41.6 48l-374.4-300.8a40.8 40.8 0 0 0-38.4 0l-377.6 307.2a23.52 23.52 0 0 1-19.2 6.4z m720 448h-208a30.24 30.24 0 0 1-32-32v-150.4c0-22.4-38.4-44.8-67.2-44.8s-64 19.2-64 44.8v150.4a30.24 30.24 0 0 1-32 32h-201.6a80 80 0 0 1-83.2-80v-432a30.24 30.24 0 0 1 32-32 30.24 30.24 0 0 1 32 32v432c0 9.6 6.4 16 19.2 16h172.8v-118.4c0-64 67.2-108.8 128-108.8s131.2 44.8 131.2 108.8v118.4h176c9.6 0 16 0 16-19.2v-428.8a32 32 0 0 1 64 0v432a80 80 0 0 1-83.2 80z"></path></svg>